<svg xmlns="http://www.w3.org/2000/svg" viewBox="0 0 120 120">
  <circle cx="60" cy="60" r="60" fill="#3B1219"/>
  <svg x="32.4" y="32.4" width="55.2" height="55.2" viewBox="0 0 24 24" fill="none" stroke="#D8B85E" stroke-width="1.6" stroke-linecap="round" stroke-linejoin="round">
      <path d="M12 3a8 8 0 0 0-8 8c0 3 1 4 1 6"/>
      <path d="M12 3a8 8 0 0 1 8 8c0 2-0.3 3.4-1 5"/>
      <path d="M12 7a5 5 0 0 0-5 5c0 3 1 4 1 6"/>
      <path d="M12 7a5 5 0 0 1 5 5c0 2-0.3 3.5-1 5"/>
      <path d="M12 11a2 2 0 0 0-2 2c0 3 1 5 2 6"/>
  </svg>
</svg>
