<svg xmlns="http://www.w3.org/2000/svg" viewBox="0 0 120 120">
  <circle cx="60" cy="60" r="60" fill="#1A0E11"/>
  <circle cx="60" cy="60" r="58.5" fill="none" stroke="#4B4A28" stroke-width="3"/>
  <svg x="32.4" y="32.4" width="55.2" height="55.2" viewBox="0 0 24 24" fill="none" stroke="#F4EBD8" stroke-width="1.6" stroke-linecap="round" stroke-linejoin="round">
      <path d="M12 10 V20"/>
      <path d="M12 12c-2-2-2-5-1-8 M8 6c1 1 1 2 0 3 M8 6c-1 0-2 0-3-1"/>
      <path d="M12 12c2-2 2-5 1-8 M16 6c-1 1-1 2 0 3 M16 6c1 0 2 0 3-1"/>
  </svg>
</svg>
