<svg xmlns="http://www.w3.org/2000/svg" viewBox="0 0 120 120">
  <circle cx="60" cy="60" r="60" fill="#3E5C46"/>
  <svg x="32.4" y="32.4" width="55.2" height="55.2" viewBox="0 0 24 24" fill="none" stroke="#F4EBD8" stroke-width="1.6" stroke-linecap="round" stroke-linejoin="round">
      <path d="M9 19s-5.5-3.4-7.4-6.6C.3 9.6 1.3 6.7 4 6.7c1.5 0 3 1.1 5 4 2-2.9 3.5-4 5-4 2.7 0 3.7 2.9 2.4 5.7C14.5 15.6 9 19 9 19z" transform="translate(-1,-3) scale(0.82)"/>
      <path d="M14 20s-5.5-3.4-7.4-6.6C5.3 10.6 6.3 7.7 9 7.7c1.5 0 3 1.1 5 4 2-2.9 3.5-4 5-4 2.7 0 3.7 2.9 2.4 5.7C19.5 16.6 14 20 14 20z" transform="translate(1,2) scale(0.82)"/>
  </svg>
</svg>
