<svg xmlns="http://www.w3.org/2000/svg" viewBox="0 0 120 120">
  <circle cx="60" cy="60" r="60" fill="#1A0E11"/>
  <circle cx="60" cy="60" r="58.5" fill="none" stroke="#591620" stroke-width="3"/>
  <svg x="32.4" y="32.4" width="55.2" height="55.2" viewBox="0 0 24 24" fill="none" stroke="#F4EBD8" stroke-width="1.6" stroke-linecap="round" stroke-linejoin="round">
      <path d="M12 6 V19"/>
      <path d="M12 9c1-4 5-6 7-4s0 6-7 5"/>
      <path d="M12 9c-1-4-5-6-7-4s0 6 7 5"/>
      <path d="M12 13c1-3 4-4 6-2s-1 5-6 4"/>
      <path d="M12 13c-1-3-4-4-6-2s1 5 6 4"/>
  </svg>
</svg>
