<svg xmlns="http://www.w3.org/2000/svg" viewBox="0 0 120 120">
  <circle cx="60" cy="60" r="60" fill="#1A0E11"/>
  <circle cx="60" cy="60" r="58.5" fill="none" stroke="#591620" stroke-width="3"/>
  <svg x="32.4" y="32.4" width="55.2" height="55.2" viewBox="0 0 24 24" fill="none" stroke="#F4EBD8" stroke-width="1.6" stroke-linecap="round" stroke-linejoin="round">
      <path d="M8 11V8a2 2 0 0 1 4 0v-1a2 2 0 0 1 4 0v1a2 2 0 0 1 4 0v6a5 5 0 0 1-5 5h-2a6 6 0 0 1-6-6v-2a2 2 0 0 1 4 0z"/>
  </svg>
</svg>
