<svg xmlns="http://www.w3.org/2000/svg" viewBox="0 0 120 120">
  <circle cx="60" cy="60" r="60" fill="#4B4A28"/>
  <svg x="32.4" y="32.4" width="55.2" height="55.2" viewBox="0 0 24 24" fill="none" stroke="#F4EBD8" stroke-width="1.6" stroke-linecap="round" stroke-linejoin="round">
      <path d="M12 8c-1-3-5-4-9-2 2 1 2 3 1 4-2 0-3 2-4 3 3 1 5 0 6-2 1 2 3 3 6 3s5-1 6-3c1 2 3 3 6 2-1-1-2-3-4-3-1-1-1-3 1-4-4-2-8-1-9 2z"/>
      <circle cx="10" cy="9" r="0.7" fill="#F4EBD8" stroke="none"/>
      <circle cx="14" cy="9" r="0.7" fill="#F4EBD8" stroke="none"/>
  </svg>
</svg>
