<svg xmlns="http://www.w3.org/2000/svg" viewBox="0 0 120 120">
  <circle cx="60" cy="60" r="60" fill="#7A3B22"/>
  <svg x="32.4" y="32.4" width="55.2" height="55.2" viewBox="0 0 24 24" fill="none" stroke="#F4EBD8" stroke-width="1.6" stroke-linecap="round" stroke-linejoin="round">
      <path d="M12 22c-4 0-6-3-6-7v-3a1.4 1.4 0 0 1 2.8 0v2"/>
      <path d="M8.8 14v-6a1.4 1.4 0 0 1 2.8 0v5"/>
      <path d="M11.6 13v-8a1.4 1.4 0 0 1 2.8 0v8"/>
      <path d="M14.4 13v-5a1.4 1.4 0 0 1 2.8 0v6c0 1 0 3-1 4"/>
  </svg>
</svg>
